<svg width="118" height="104" viewBox="0 0 118 104" fill="none" xmlns="http://www.w3.org/2000/svg">
<path d="M36.7026 39.2923L44.0078 36.0455L49.6928 37.148L54.5598 39.2923L61.865 36.0455L66.6975 36.5812L70.7935 39.2923L74.0403 46.5975L70.7935 56.3377L63.4883 63.6429L54.5598 68.513L39.9494 58.7728L34.2676 48.2208L36.7026 39.2923Z" fill="#5B47FB"/>
<path d="M63.4769 35.8051C59.7837 35.5795 56.4282 36.9091 54.1312 39.2451C51.8356 36.9091 48.4801 35.5795 44.787 35.8051C38.9038 36.1656 34.076 40.9269 34.1213 46.8213C34.209 58.1201 50.2708 66.7954 53.5516 68.4497C53.9184 68.6347 54.3454 68.6347 54.7124 68.4497C57.9932 66.7954 74.0548 58.1201 74.1425 46.8213C74.188 40.9269 69.36 36.1656 63.4769 35.8051Z" stroke="#5B47FB" stroke-width="3.4" stroke-linecap="round" stroke-linejoin="round"/>
<path d="M71.7804 72.8815L82.1261 72.8701L84.4411 66.5876L88.3144 77.4465L92.6699 56.3262L96.9524 86.0179L102.651 63.5844L105.711 72.9335L115.6 72.8815" stroke="#5B47FB" stroke-width="3.4" stroke-linecap="round" stroke-linejoin="round"/>
<path d="M94.0567 47.599C94.2271 42.5634 94.2645 36.8198 94.2645 30.1948C94.2645 25.755 94.0518 21.4075 93.6459 17.1818C68.5015 23.0569 54.1315 4 54.1315 4C54.1315 4 39.7628 23.0569 14.6184 17.1818C14.2126 21.4075 14 25.755 14 30.1948C14 77.0113 15.8198 79.7679 54.1315 100C67.2645 93.065 76.1103 88.1834 82.0632 82.8767" stroke="#5B47FB" stroke-width="3.4" stroke-linecap="round" stroke-linejoin="round"/>
</svg>
