<svg width="118" height="104" viewBox="0 0 118 104" fill="none" xmlns="http://www.w3.org/2000/svg">
<rect x="57.6707" y="57.3563" width="4.67129" height="19.1996" fill="#5B47FB" stroke="#5B47FB" stroke-width="3.4"/>
<rect x="68.7991" y="65.4276" width="4.67129" height="19.1996" transform="rotate(90 68.7991 65.4276)" fill="#5B47FB" stroke="#5B47FB" stroke-width="3.4"/>
<path d="M71.3546 63.3562H62.9765V54.9782H55.4381V63.3562H47.06V70.9109H55.4381V79.2888H62.9765V70.9109H71.3546V63.3562Z" stroke="#5B47FB" stroke-width="3.4" stroke-linecap="round" stroke-linejoin="round"/>
<path d="M90.1444 26.8578V20.6429C90.1444 19.5936 89.7569 18.5927 89.0466 17.8179L77.5532 5.33972C76.7621 4.4842 75.6482 3.99992 74.4861 3.99992H31.6114C29.3029 3.99992 27.4465 5.85632 27.4465 8.16467V17.6242" stroke="#5B47FB" stroke-width="3.4" stroke-linecap="round" stroke-linejoin="round"/>
<path d="M98.4901 99.9999H19.9403C16.6635 99.9999 14 97.3364 14 94.0593V30.2477C14 26.9708 16.6635 24.3073 19.9403 24.3073H34.7754C36.9868 24.3073 39.021 25.5503 40.0378 27.5197L41.4585 30.2477C42.4753 32.2172 44.5095 33.4439 46.737 33.4439H98.4901C101.767 33.4439 104.431 36.1075 104.431 39.4006V94.0593C104.431 97.3364 101.767 99.9999 98.4901 99.9999Z" stroke="#5B47FB" stroke-width="3.4" stroke-linecap="round" stroke-linejoin="round"/>
<path d="M89.8218 19.0123H78.6834C77.3759 19.0123 76.3105 17.9468 76.3105 16.6393V12.9749" stroke="#5B47FB" stroke-width="3.4" stroke-linecap="round" stroke-linejoin="round"/>
<path d="M78.8609 53.3638C81.5083 57.2864 83.058 62.0324 83.058 67.1333C83.058 80.7415 72.0328 91.767 58.4244 91.767C54.3242 91.767 50.466 90.7662 47.06 88.9905" stroke="#5B47FB" stroke-width="3.4" stroke-linecap="round" stroke-linejoin="round"/>
<path d="M38.4076 81.4679C35.502 77.4322 33.807 72.4766 33.807 67.1333C33.807 53.5251 44.8325 42.4998 58.4245 42.4998C62.6215 42.4998 66.5604 43.549 70.015 45.3892" stroke="#5B47FB" stroke-width="3.4" stroke-linecap="round" stroke-linejoin="round"/>
</svg>
