<svg width="24" height="24" viewBox="0 0 24 24" fill="none" xmlns="http://www.w3.org/2000/svg">
<line x1="3" y1="8" x2="7" y2="8" stroke="black" stroke-width="2"/>
<line x1="3" y1="17" x2="12" y2="17" stroke="black" stroke-width="2"/>
<line x1="18" y1="17" x2="21" y2="17" stroke="black" stroke-width="2"/>
<line x1="13" y1="8" x2="21" y2="8" stroke="black" stroke-width="2"/>
<path d="M15 13C17.2091 13 19 14.7909 19 17C19 19.2091 17.2091 21 15 21C12.7909 21 11 19.2091 11 17C11 14.7909 12.7909 13 15 13ZM15 15C13.8954 15 13 15.8954 13 17C13 18.1046 13.8954 19 15 19C16.1046 19 17 18.1046 17 17C17 15.8954 16.1046 15 15 15Z" fill="black"/>
<path d="M10 4C12.2091 4 14 5.79086 14 8C14 10.2091 12.2091 12 10 12C7.79086 12 6 10.2091 6 8C6 5.79086 7.79086 4 10 4ZM10 6C8.89543 6 8 6.89543 8 8C8 9.10457 8.89543 10 10 10C11.1046 10 12 9.10457 12 8C12 6.89543 11.1046 6 10 6Z" fill="black"/>
</svg>
