<svg width="24" height="24" viewBox="0 0 24 24" fill="none" xmlns="http://www.w3.org/2000/svg">
<path d="M12 12.5C12.4125 12.5 12.7656 12.3531 13.0594 12.0594C13.3531 11.7656 13.5 11.4125 13.5 11C13.5 10.5875 13.3531 10.2344 13.0594 9.94063C12.7656 9.64687 12.4125 9.5 12 9.5C11.5875 9.5 11.2344 9.64687 10.9406 9.94063C10.6469 10.2344 10.5 10.5875 10.5 11C10.5 11.4125 10.6469 11.7656 10.9406 12.0594C11.2344 12.3531 11.5875 12.5 12 12.5ZM12 20C9.9875 18.2875 8.48438 16.6969 7.49063 15.2281C6.49688 13.7594 6 12.4 6 11.15C6 9.275 6.60312 7.78125 7.80938 6.66875C9.01563 5.55625 10.4125 5 12 5C13.5875 5 14.9844 5.55625 16.1906 6.66875C17.3969 7.78125 18 9.275 18 11.15C18 12.4 17.5031 13.7594 16.5094 15.2281C15.5156 16.6969 14.0125 18.2875 12 20Z" fill="black"/>
</svg>
